# MagicaVoxel @ Ephtracy

# group
o 

# material
mtllib frog.mtl
usemtl palette

# normals
vn -1 0 0
vn 1 0 0
vn 0 0 1
vn 0 0 -1
vn 0 -1 0
vn 0 1 0

# texcoords
vt 0.00195313 0.5
vt 0.818359 0.5
vt 0.841797 0.5
vt 0.912109 0.5
vt 0.994141 0.5

# verts
v -0.7 0 0.3
v -0.7 0 -0.1
v -0.7 0.3 0
v -0.7 0.3 -0.1
v -0.7 0.4 0.3
v -0.7 0.4 0
v -0.6 0 0.4
v -0.6 0 0.3
v -0.6 0 -0.1
v -0.6 0 -0.5
v -0.6 0.2 -0.4
v -0.6 0.2 -0.5
v -0.6 0.3 0
v -0.6 0.3 -0.1
v -0.6 0.3 -0.4
v -0.6 0.4 0.4
v -0.6 0.4 0.3
v -0.6 0.4 0
v -0.6 0.5 0.3
v -0.6 0.5 -0.1
v -0.5 0 0.5
v -0.5 0 0.4
v -0.5 0.2 -0.4
v -0.5 0.2 -0.5
v -0.5 0.3 0.5
v -0.5 0.3 0.4
v -0.5 0.3 -0.1
v -0.5 0.3 -0.4
v -0.5 0.4 0.4
v -0.5 0.4 0.3
v -0.5 0.5 0.4
v -0.5 0.5 0.3
v -0.5 0.5 -0.1
v -0.5 0.5 -0.3
v -0.5 0.5 -0.4
v -0.5 0.5 -0.5
v -0.5 0.6 0.3
v -0.5 0.6 -0.1
v -0.5 0.6 -0.3
v -0.5 0.6 -0.4
v -0.5 0.6 -0.6
v -0.5 0.7 -0.1
v -0.5 0.7 -0.2
v -0.5 0.8 -0.2
v -0.5 0.8 -0.6
v -0.4 0.3 0.5
v -0.4 0.3 0.4
v -0.4 0.4 -0.5
v -0.4 0.4 -0.6
v -0.4 0.5 0.5
v -0.4 0.5 0.4
v -0.4 0.5 -0.4
v -0.4 0.5 -0.5
v -0.4 0.6 0.2
v -0.4 0.6 -0.1
v -0.4 0.6 -0.4
v -0.4 0.6 -0.6
v -0.4 0.7 0.2
v -0.4 0.7 -0.1
v -0.4 0.7 -0.2
v -0.4 0.8 -0.1
v -0.4 0.8 -0.2
v -0.3 0.1 -0.5
v -0.3 0.1 -0.8
v -0.3 0.2 -0.8
v -0.3 0.2 -0.9
v -0.3 0.3 -0.5
v -0.3 0.3 -0.9
v -0.3 0.5 0.4
v -0.3 0.5 0.3
v -0.3 0.6 0.4
v -0.3 0.6 0.3
v -0.3 0.6 0.2
v -0.3 0.7 0.3
v -0.3 0.7 0.2
v -0.2 0 -0.5
v -0.2 0 -0.8
v -0.2 0.1 -0.5
v -0.2 0.1 -0.8
v -0.2 0.5 0.5
v -0.2 0.5 0.4
v -0.2 0.6 0.5
v -0.2 0.6 0.4
v 0.1 0.4 -0.5
v 0.1 0.4 -0.6
v 0.1 0.5 -0.5
v 0.1 0.5 -0.6
v 0.1 0.7 -0.1
v 0.1 0.7 -0.3
v 0.1 0.8 -0.1
v 0.1 0.8 -0.3
v -0.1 0.4 -0.5
v -0.1 0.4 -0.6
v -0.1 0.5 -0.5
v -0.1 0.5 -0.6
v -0.1 0.7 -0.1
v -0.1 0.7 -0.3
v -0.1 0.8 -0.1
v -0.1 0.8 -0.3
v 0.2 0 -0.5
v 0.2 0 -0.8
v 0.2 0.1 -0.5
v 0.2 0.1 -0.8
v 0.2 0.5 0.5
v 0.2 0.5 0.4
v 0.2 0.6 0.5
v 0.2 0.6 0.4
v 0.3 0.1 -0.5
v 0.3 0.1 -0.8
v 0.3 0.2 -0.8
v 0.3 0.2 -0.9
v 0.3 0.3 -0.5
v 0.3 0.3 -0.9
v 0.3 0.5 0.4
v 0.3 0.5 0.3
v 0.3 0.6 0.4
v 0.3 0.6 0.3
v 0.3 0.6 0.2
v 0.3 0.7 0.3
v 0.3 0.7 0.2
v 0.4 0.3 0.5
v 0.4 0.3 0.4
v 0.4 0.4 -0.5
v 0.4 0.4 -0.6
v 0.4 0.5 0.5
v 0.4 0.5 0.4
v 0.4 0.5 -0.4
v 0.4 0.5 -0.5
v 0.4 0.6 0.2
v 0.4 0.6 -0.1
v 0.4 0.6 -0.4
v 0.4 0.6 -0.6
v 0.4 0.7 0.2
v 0.4 0.7 -0.1
v 0.4 0.7 -0.2
v 0.4 0.8 -0.1
v 0.4 0.8 -0.2
v 0.5 0 0.5
v 0.5 0 0.4
v 0.5 0.2 -0.4
v 0.5 0.2 -0.5
v 0.5 0.3 0.5
v 0.5 0.3 0.4
v 0.5 0.3 -0.1
v 0.5 0.3 -0.4
v 0.5 0.4 0.4
v 0.5 0.4 0.3
v 0.5 0.5 0.4
v 0.5 0.5 0.3
v 0.5 0.5 -0.1
v 0.5 0.5 -0.3
v 0.5 0.5 -0.4
v 0.5 0.5 -0.5
v 0.5 0.6 0.3
v 0.5 0.6 -0.1
v 0.5 0.6 -0.3
v 0.5 0.6 -0.4
v 0.5 0.6 -0.6
v 0.5 0.7 -0.1
v 0.5 0.7 -0.2
v 0.5 0.8 -0.2
v 0.5 0.8 -0.6
v 0.6 0 0.4
v 0.6 0 0.3
v 0.6 0 -0.1
v 0.6 0 -0.5
v 0.6 0.2 -0.4
v 0.6 0.2 -0.5
v 0.6 0.3 0
v 0.6 0.3 -0.1
v 0.6 0.3 -0.4
v 0.6 0.4 0.4
v 0.6 0.4 0.3
v 0.6 0.4 0
v 0.6 0.5 0.3
v 0.6 0.5 -0.1
v 0.7 0 0.3
v 0.7 0 -0.1
v 0.7 0.3 0
v 0.7 0.3 -0.1
v 0.7 0.4 0.3
v 0.7 0.4 0
v -0.5 0 0.5
v -0.5 0.3 0.5
v -0.4 0.3 0.5
v -0.4 0.5 0.5
v -0.2 0.5 0.5
v -0.2 0.6 0.5
v -0.1 0.3 0.5
v -0.1 0.5 0.5
v 0.1 0.3 0.5
v 0.1 0.5 0.5
v 0.2 0.5 0.5
v 0.2 0.6 0.5
v 0.4 0.3 0.5
v 0.4 0.5 0.5
v 0.5 0 0.5
v 0.5 0.3 0.5
v -0.6 0 0.4
v -0.6 0.4 0.4
v -0.5 0 0.4
v -0.5 0.3 0.4
v -0.5 0.4 0.4
v -0.5 0.5 0.4
v -0.4 0.3 0.4
v -0.4 0.5 0.4
v -0.3 0.5 0.4
v -0.3 0.6 0.4
v -0.2 0.5 0.4
v -0.2 0.6 0.4
v 0.2 0.5 0.4
v 0.2 0.6 0.4
v 0.3 0.5 0.4
v 0.3 0.6 0.4
v 0.4 0.3 0.4
v 0.4 0.5 0.4
v 0.5 0 0.4
v 0.5 0.3 0.4
v 0.5 0.4 0.4
v 0.5 0.5 0.4
v 0.6 0 0.4
v 0.6 0.4 0.4
v -0.7 0 0.3
v -0.7 0.4 0.3
v -0.6 0 0.3
v -0.6 0.4 0.3
v -0.6 0.5 0.3
v -0.5 0.4 0.3
v -0.5 0.5 0.3
v -0.5 0.6 0.3
v -0.3 0.5 0.3
v -0.3 0.6 0.3
v -0.3 0.7 0.3
v 0.3 0.5 0.3
v 0.3 0.6 0.3
v 0.3 0.7 0.3
v 0.5 0.4 0.3
v 0.5 0.5 0.3
v 0.5 0.6 0.3
v 0.6 0 0.3
v 0.6 0.4 0.3
v 0.6 0.5 0.3
v 0.7 0 0.3
v 0.7 0.4 0.3
v -0.4 0.6 0.2
v -0.4 0.7 0.2
v -0.3 0.6 0.2
v -0.3 0.7 0.2
v 0.3 0.6 0.2
v 0.3 0.7 0.2
v 0.4 0.6 0.2
v 0.4 0.7 0.2
v -0.5 0.6 -0.1
v -0.5 0.7 -0.1
v -0.4 0.6 -0.1
v -0.4 0.7 -0.1
v -0.4 0.8 -0.1
v -0.1 0.7 -0.1
v -0.1 0.8 -0.1
v 0.1 0.7 -0.1
v 0.1 0.8 -0.1
v 0.4 0.6 -0.1
v 0.4 0.7 -0.1
v 0.4 0.8 -0.1
v 0.5 0.6 -0.1
v 0.5 0.7 -0.1
v -0.5 0.7 -0.2
v -0.5 0.8 -0.2
v -0.4 0.7 -0.2
v -0.4 0.8 -0.2
v 0.4 0.7 -0.2
v 0.4 0.8 -0.2
v 0.5 0.7 -0.2
v 0.5 0.8 -0.2
v -0.1 0.7 -0.3
v -0.1 0.8 -0.3
v 0.1 0.7 -0.3
v 0.1 0.8 -0.3
v -0.7 0.3 0
v -0.7 0.4 0
v -0.6 0.3 0
v -0.6 0.4 0
v 0.6 0.3 0
v 0.6 0.4 0
v 0.7 0.3 0
v 0.7 0.4 0
v -0.7 0 -0.1
v -0.7 0.3 -0.1
v -0.6 0 -0.1
v -0.6 0.3 -0.1
v -0.6 0.5 -0.1
v -0.5 0.3 -0.1
v -0.5 0.5 -0.1
v 0.5 0.3 -0.1
v 0.5 0.5 -0.1
v 0.6 0 -0.1
v 0.6 0.3 -0.1
v 0.6 0.5 -0.1
v 0.7 0 -0.1
v 0.7 0.3 -0.1
v -0.6 0.2 -0.4
v -0.6 0.3 -0.4
v -0.5 0.2 -0.4
v -0.5 0.3 -0.4
v -0.5 0.5 -0.4
v -0.5 0.6 -0.4
v -0.4 0.5 -0.4
v -0.4 0.6 -0.4
v 0.4 0.5 -0.4
v 0.4 0.6 -0.4
v 0.5 0.2 -0.4
v 0.5 0.3 -0.4
v 0.5 0.5 -0.4
v 0.5 0.6 -0.4
v 0.6 0.2 -0.4
v 0.6 0.3 -0.4
v -0.6 0 -0.5
v -0.6 0.2 -0.5
v -0.5 0.2 -0.5
v -0.5 0.5 -0.5
v -0.4 0.4 -0.5
v -0.4 0.5 -0.5
v -0.3 0.1 -0.5
v -0.3 0.3 -0.5
v -0.2 0 -0.5
v -0.2 0.1 -0.5
v -0.1 0.4 -0.5
v -0.1 0.5 -0.5
v 0.1 0.4 -0.5
v 0.1 0.5 -0.5
v 0.2 0 -0.5
v 0.2 0.1 -0.5
v 0.3 0.1 -0.5
v 0.3 0.3 -0.5
v 0.4 0.4 -0.5
v 0.4 0.5 -0.5
v 0.5 0.2 -0.5
v 0.5 0.5 -0.5
v 0.6 0 -0.5
v 0.6 0.2 -0.5
v -0.5 0.6 -0.6
v -0.5 0.8 -0.6
v -0.4 0.4 -0.6
v -0.4 0.6 -0.6
v -0.4 0.7 -0.6
v -0.3 0.5 -0.6
v -0.3 0.6 -0.6
v -0.2 0.5 -0.6
v -0.2 0.6 -0.6
v -0.1 0.4 -0.6
v -0.1 0.5 -0.6
v -0.1 0.7 -0.6
v 0.1 0.4 -0.6
v 0.1 0.5 -0.6
v 0.1 0.7 -0.6
v 0.2 0.5 -0.6
v 0.2 0.6 -0.6
v 0.3 0.5 -0.6
v 0.3 0.6 -0.6
v 0.4 0.4 -0.6
v 0.4 0.6 -0.6
v 0.4 0.7 -0.6
v 0.5 0.6 -0.6
v 0.5 0.8 -0.6
v -0.3 0.1 -0.8
v -0.3 0.2 -0.8
v -0.2 0 -0.8
v -0.2 0.1 -0.8
v -0.2 0.2 -0.8
v 0.2 0 -0.8
v 0.2 0.1 -0.8
v 0.2 0.2 -0.8
v 0.3 0.1 -0.8
v 0.3 0.2 -0.8
v -0.3 0.2 -0.9
v -0.3 0.3 -0.9
v 0.3 0.2 -0.9
v 0.3 0.3 -0.9
v -0.5 0 0.5
v 0.5 0 0.5
v -0.6 0 0.4
v -0.5 0 0.4
v 0.5 0 0.4
v 0.6 0 0.4
v -0.7 0 0.3
v -0.6 0 0.3
v 0.6 0 0.3
v 0.7 0 0.3
v -0.7 0 -0.1
v -0.6 0 -0.1
v 0.6 0 -0.1
v 0.7 0 -0.1
v -0.6 0 -0.5
v -0.2 0 -0.5
v 0.2 0 -0.5
v 0.6 0 -0.5
v -0.2 0 -0.8
v 0.2 0 -0.8
v -0.3 0.1 -0.5
v -0.2 0.1 -0.5
v 0.2 0.1 -0.5
v 0.3 0.1 -0.5
v -0.3 0.1 -0.8
v -0.2 0.1 -0.8
v 0.2 0.1 -0.8
v 0.3 0.1 -0.8
v -0.3 0.2 -0.8
v -0.2 0.2 -0.8
v 0.2 0.2 -0.8
v 0.3 0.2 -0.8
v -0.3 0.2 -0.9
v 0.3 0.2 -0.9
v -0.4 0.4 -0.5
v -0.1 0.4 -0.5
v 0.1 0.4 -0.5
v 0.4 0.4 -0.5
v -0.4 0.4 -0.6
v -0.1 0.4 -0.6
v 0.1 0.4 -0.6
v 0.4 0.4 -0.6
v -0.1 0.5 -0.5
v 0.1 0.5 -0.5
v -0.1 0.5 -0.6
v 0.1 0.5 -0.6
v -0.5 0.6 -0.4
v -0.4 0.6 -0.4
v 0.4 0.6 -0.4
v 0.5 0.6 -0.4
v -0.5 0.6 -0.6
v -0.4 0.6 -0.6
v 0.4 0.6 -0.6
v 0.5 0.6 -0.6
v -0.6 0.2 -0.4
v -0.5 0.2 -0.4
v 0.5 0.2 -0.4
v 0.6 0.2 -0.4
v -0.6 0.2 -0.5
v -0.5 0.2 -0.5
v 0.5 0.2 -0.5
v 0.6 0.2 -0.5
v -0.5 0.3 0.5
v -0.4 0.3 0.5
v 0.4 0.3 0.5
v 0.5 0.3 0.5
v -0.5 0.3 0.4
v -0.4 0.3 0.4
v 0.4 0.3 0.4
v 0.5 0.3 0.4
v -0.7 0.3 0
v -0.6 0.3 0
v 0.6 0.3 0
v 0.7 0.3 0
v -0.7 0.3 -0.1
v -0.6 0.3 -0.1
v -0.5 0.3 -0.1
v 0.5 0.3 -0.1
v 0.6 0.3 -0.1
v 0.7 0.3 -0.1
v -0.6 0.3 -0.4
v -0.5 0.3 -0.4
v 0.5 0.3 -0.4
v 0.6 0.3 -0.4
v -0.3 0.3 -0.5
v 0.3 0.3 -0.5
v -0.3 0.3 -0.9
v 0.3 0.3 -0.9
v -0.6 0.4 0.4
v -0.5 0.4 0.4
v 0.5 0.4 0.4
v 0.6 0.4 0.4
v -0.7 0.4 0.3
v -0.6 0.4 0.3
v -0.5 0.4 0.3
v 0.5 0.4 0.3
v 0.6 0.4 0.3
v 0.7 0.4 0.3
v -0.7 0.4 0
v -0.6 0.4 0
v 0.6 0.4 0
v 0.7 0.4 0
v -0.4 0.5 0.5
v -0.2 0.5 0.5
v 0.2 0.5 0.5
v 0.4 0.5 0.5
v -0.5 0.5 0.4
v -0.4 0.5 0.4
v -0.3 0.5 0.4
v -0.2 0.5 0.4
v 0.2 0.5 0.4
v 0.3 0.5 0.4
v 0.4 0.5 0.4
v 0.5 0.5 0.4
v -0.6 0.5 0.3
v -0.5 0.5 0.3
v -0.3 0.5 0.3
v 0.3 0.5 0.3
v 0.5 0.5 0.3
v 0.6 0.5 0.3
v -0.6 0.5 -0.1
v -0.5 0.5 -0.1
v 0.5 0.5 -0.1
v 0.6 0.5 -0.1
v -0.5 0.5 -0.4
v -0.4 0.5 -0.4
v 0.4 0.5 -0.4
v 0.5 0.5 -0.4
v -0.5 0.5 -0.5
v -0.4 0.5 -0.5
v 0.4 0.5 -0.5
v 0.5 0.5 -0.5
v -0.2 0.6 0.5
v 0.2 0.6 0.5
v -0.3 0.6 0.4
v -0.2 0.6 0.4
v 0.2 0.6 0.4
v 0.3 0.6 0.4
v -0.5 0.6 0.3
v -0.3 0.6 0.3
v 0.3 0.6 0.3
v 0.5 0.6 0.3
v -0.4 0.6 0.2
v -0.3 0.6 0.2
v 0.3 0.6 0.2
v 0.4 0.6 0.2
v -0.5 0.6 -0.1
v -0.4 0.6 -0.1
v 0.4 0.6 -0.1
v 0.5 0.6 -0.1
v -0.3 0.7 0.3
v 0.3 0.7 0.3
v -0.4 0.7 0.2
v -0.3 0.7 0.2
v 0.3 0.7 0.2
v 0.4 0.7 0.2
v -0.5 0.7 -0.1
v -0.4 0.7 -0.1
v -0.1 0.7 -0.1
v 0.1 0.7 -0.1
v 0.4 0.7 -0.1
v 0.5 0.7 -0.1
v -0.5 0.7 -0.2
v -0.4 0.7 -0.2
v 0.4 0.7 -0.2
v 0.5 0.7 -0.2
v -0.1 0.7 -0.3
v 0.1 0.7 -0.3
v -0.4 0.8 -0.1
v -0.1 0.8 -0.1
v 0.1 0.8 -0.1
v 0.4 0.8 -0.1
v -0.5 0.8 -0.2
v -0.4 0.8 -0.2
v 0.4 0.8 -0.2
v 0.5 0.8 -0.2
v -0.4 0.8 -0.3
v -0.1 0.8 -0.3
v 0.1 0.8 -0.3
v 0.4 0.8 -0.3
v -0.5 0.8 -0.6
v 0.5 0.8 -0.6

# faces
f 3/2/1 2/2/1 1/2/1
f 4/2/1 2/2/1 3/2/1
f 5/2/1 3/2/1 1/2/1
f 6/2/1 3/2/1 5/2/1
f 11/2/1 10/2/1 9/2/1
f 12/2/1 10/2/1 11/2/1
f 14/2/1 11/2/1 9/2/1
f 15/2/1 11/2/1 14/2/1
f 16/2/1 8/2/1 7/2/1
f 17/2/1 8/2/1 16/2/1
f 18/2/1 14/2/1 13/2/1
f 19/2/1 18/2/1 17/2/1
f 20/2/1 14/2/1 18/2/1
f 20/2/1 18/2/1 19/2/1
f 25/2/1 22/2/1 21/2/1
f 26/2/1 22/2/1 25/2/1
f 28/2/1 24/2/1 23/2/1
f 31/2/1 30/2/1 29/2/1
f 32/2/1 30/2/1 31/2/1
f 33/2/1 28/2/1 27/2/1
f 34/2/1 28/2/1 33/2/1
f 35/2/1 24/2/1 28/2/1
f 35/2/1 28/2/1 34/2/1
f 36/2/1 24/2/1 35/2/1
f 37/2/1 33/2/1 32/2/1
f 38/4/1 34/4/1 33/4/1
f 38/2/1 33/2/1 37/2/1
f 39/2/1 35/2/1 34/2/1
f 39/4/1 34/4/1 38/4/1
f 40/2/1 35/2/1 39/2/1
f 42/4/1 40/4/1 39/4/1
f 42/4/1 41/4/1 40/4/1
f 42/4/1 39/4/1 38/4/1
f 43/4/1 41/4/1 42/4/1
f 44/4/1 41/4/1 43/4/1
f 45/4/1 41/4/1 44/4/1
f 50/2/1 47/2/1 46/2/1
f 51/2/1 47/2/1 50/2/1
f 53/1/1 49/1/1 48/1/1
f 56/1/1 53/1/1 52/1/1
f 57/1/1 49/1/1 53/1/1
f 57/1/1 53/1/1 56/1/1
f 58/2/1 55/2/1 54/2/1
f 59/2/1 55/2/1 58/2/1
f 61/2/1 60/2/1 59/2/1
f 62/2/1 60/2/1 61/2/1
f 65/2/1 64/2/1 63/2/1
f 67/2/1 65/2/1 63/2/1
f 67/2/1 66/2/1 65/2/1
f 68/2/1 66/2/1 67/2/1
f 71/2/1 70/2/1 69/2/1
f 72/2/1 70/2/1 71/2/1
f 74/2/1 73/2/1 72/2/1
f 75/2/1 73/2/1 74/2/1
f 78/2/1 77/2/1 76/2/1
f 79/2/1 77/2/1 78/2/1
f 82/2/1 81/2/1 80/2/1
f 83/2/1 81/2/1 82/2/1
f 86/1/1 85/1/1 84/1/1
f 87/1/1 85/1/1 86/1/1
f 90/2/1 89/2/1 88/2/1
f 91/2/1 89/2/1 90/2/1
f 92/1/2 93/1/2 94/1/2
f 94/1/2 93/1/2 95/1/2
f 96/2/2 97/2/2 98/2/2
f 98/2/2 97/2/2 99/2/2
f 100/2/2 101/2/2 102/2/2
f 102/2/2 101/2/2 103/2/2
f 104/2/2 105/2/2 106/2/2
f 106/2/2 105/2/2 107/2/2
f 108/2/2 109/2/2 110/2/2
f 108/2/2 110/2/2 112/2/2
f 110/2/2 111/2/2 112/2/2
f 112/2/2 111/2/2 113/2/2
f 114/2/2 115/2/2 116/2/2
f 116/2/2 115/2/2 117/2/2
f 117/2/2 118/2/2 119/2/2
f 119/2/2 118/2/2 120/2/2
f 121/2/2 122/2/2 125/2/2
f 125/2/2 122/2/2 126/2/2
f 123/1/2 124/1/2 128/1/2
f 127/1/2 128/1/2 131/1/2
f 128/1/2 124/1/2 132/1/2
f 131/1/2 128/1/2 132/1/2
f 129/2/2 130/2/2 133/2/2
f 133/2/2 130/2/2 134/2/2
f 134/2/2 135/2/2 136/2/2
f 136/2/2 135/2/2 137/2/2
f 138/2/2 139/2/2 142/2/2
f 142/2/2 139/2/2 143/2/2
f 140/2/2 141/2/2 145/2/2
f 146/2/2 147/2/2 148/2/2
f 148/2/2 147/2/2 149/2/2
f 144/2/2 145/2/2 150/2/2
f 150/2/2 145/2/2 151/2/2
f 145/2/2 141/2/2 152/2/2
f 151/2/2 145/2/2 152/2/2
f 152/2/2 141/2/2 153/2/2
f 149/2/2 150/2/2 154/2/2
f 150/4/2 151/4/2 155/4/2
f 154/2/2 150/2/2 155/2/2
f 151/2/2 152/2/2 156/2/2
f 155/4/2 151/4/2 156/4/2
f 156/2/2 152/2/2 157/2/2
f 156/4/2 157/4/2 159/4/2
f 157/4/2 158/4/2 159/4/2
f 155/4/2 156/4/2 159/4/2
f 159/4/2 158/4/2 160/4/2
f 160/4/2 158/4/2 161/4/2
f 161/4/2 158/4/2 162/4/2
f 165/2/2 166/2/2 167/2/2
f 167/2/2 166/2/2 168/2/2
f 165/2/2 167/2/2 170/2/2
f 170/2/2 167/2/2 171/2/2
f 163/2/2 164/2/2 172/2/2
f 172/2/2 164/2/2 173/2/2
f 169/2/2 170/2/2 174/2/2
f 173/2/2 174/2/2 175/2/2
f 174/2/2 170/2/2 176/2/2
f 175/2/2 174/2/2 176/2/2
f 177/2/2 178/2/2 179/2/2
f 179/2/2 178/2/2 180/2/2
f 177/2/2 179/2/2 181/2/2
f 181/2/2 179/2/2 182/2/2
f 185/2/3 184/2/3 183/2/3
f 187/2/3 186/2/3 185/2/3
f 189/2/3 185/2/3 183/2/3
f 189/2/3 188/2/3 187/2/3
f 189/2/3 187/2/3 185/2/3
f 190/2/3 188/2/3 189/2/3
f 191/2/3 189/2/3 183/2/3
f 191/5/3 190/5/3 189/5/3
f 192/2/3 188/2/3 190/2/3
f 192/5/3 190/5/3 191/5/3
f 193/2/3 192/2/3 191/2/3
f 193/2/3 188/2/3 192/2/3
f 194/2/3 188/2/3 193/2/3
f 195/2/3 191/2/3 183/2/3
f 195/2/3 193/2/3 191/2/3
f 196/2/3 193/2/3 195/2/3
f 197/2/3 195/2/3 183/2/3
f 198/2/3 195/2/3 197/2/3
f 201/2/3 200/2/3 199/2/3
f 202/2/3 200/2/3 201/2/3
f 203/2/3 200/2/3 202/2/3
f 205/2/3 204/2/3 203/2/3
f 205/2/3 203/2/3 202/2/3
f 206/2/3 204/2/3 205/2/3
f 209/2/3 208/2/3 207/2/3
f 210/2/3 208/2/3 209/2/3
f 213/2/3 212/2/3 211/2/3
f 214/2/3 212/2/3 213/2/3
f 218/2/3 216/2/3 215/2/3
f 219/2/3 216/2/3 218/2/3
f 220/2/3 216/2/3 219/2/3
f 221/2/3 218/2/3 217/2/3
f 221/2/3 219/2/3 218/2/3
f 222/2/3 219/2/3 221/2/3
f 225/2/3 224/2/3 223/2/3
f 226/2/3 224/2/3 225/2/3
f 228/2/3 227/2/3 226/2/3
f 229/2/3 227/2/3 228/2/3
f 231/2/3 230/2/3 229/2/3
f 232/2/3 230/2/3 231/2/3
f 235/2/3 233/2/3 232/2/3
f 236/2/3 233/2/3 235/2/3
f 238/2/3 235/2/3 234/2/3
f 239/2/3 235/2/3 238/2/3
f 241/2/3 238/2/3 237/2/3
f 242/2/3 238/2/3 241/2/3
f 243/2/3 241/2/3 240/2/3
f 244/2/3 241/2/3 243/2/3
f 247/2/3 246/2/3 245/2/3
f 248/2/3 246/2/3 247/2/3
f 251/2/3 250/2/3 249/2/3
f 252/2/3 250/2/3 251/2/3
f 255/4/3 254/4/3 253/4/3
f 256/4/3 254/4/3 255/4/3
f 258/2/3 257/2/3 256/2/3
f 259/2/3 257/2/3 258/2/3
f 263/2/3 261/2/3 260/2/3
f 264/2/3 261/2/3 263/2/3
f 265/4/3 263/4/3 262/4/3
f 266/4/3 263/4/3 265/4/3
f 269/4/3 268/4/3 267/4/3
f 270/4/3 268/4/3 269/4/3
f 273/4/3 272/4/3 271/4/3
f 274/4/3 272/4/3 273/4/3
f 277/4/3 276/4/3 275/4/3
f 278/4/3 276/4/3 277/4/3
f 279/2/4 280/2/4 281/2/4
f 281/2/4 280/2/4 282/2/4
f 283/2/4 284/2/4 285/2/4
f 285/2/4 284/2/4 286/2/4
f 287/2/4 288/2/4 289/2/4
f 289/2/4 288/2/4 290/2/4
f 290/2/4 291/2/4 292/2/4
f 292/2/4 291/2/4 293/2/4
f 294/2/4 295/2/4 297/2/4
f 297/2/4 295/2/4 298/2/4
f 296/2/4 297/2/4 299/2/4
f 299/2/4 297/2/4 300/2/4
f 301/2/4 302/2/4 303/2/4
f 303/2/4 302/2/4 304/2/4
f 305/2/4 306/2/4 307/2/4
f 307/2/4 306/2/4 308/2/4
f 309/2/4 310/2/4 313/2/4
f 313/2/4 310/2/4 314/2/4
f 311/2/4 312/2/4 315/2/4
f 315/2/4 312/2/4 316/2/4
f 317/2/4 318/2/4 319/2/4
f 319/2/4 320/2/4 321/2/4
f 321/2/4 320/2/4 322/2/4
f 317/2/4 319/2/4 323/2/4
f 319/2/4 321/2/4 323/2/4
f 323/2/4 321/2/4 324/2/4
f 317/2/4 323/2/4 325/2/4
f 325/2/4 323/2/4 326/2/4
f 324/2/4 321/2/4 327/2/4
f 324/2/4 327/2/4 329/2/4
f 327/2/4 328/2/4 329/2/4
f 329/2/4 328/2/4 330/2/4
f 331/2/4 332/2/4 333/2/4
f 324/2/4 329/2/4 334/2/4
f 334/2/4 329/2/4 335/2/4
f 333/2/4 334/2/4 335/2/4
f 333/2/4 335/2/4 337/2/4
f 335/2/4 336/2/4 337/2/4
f 337/2/4 336/2/4 338/2/4
f 331/2/4 333/2/4 339/2/4
f 333/2/4 337/2/4 339/2/4
f 339/2/4 337/2/4 340/2/4
f 341/4/4 342/4/4 344/4/4
f 344/4/4 342/4/4 345/4/4
f 343/1/4 344/1/4 346/1/4
f 344/1/4 345/1/4 346/1/4
f 346/1/4 345/1/4 347/1/4
f 343/1/4 346/1/4 348/1/4
f 346/5/4 347/5/4 348/5/4
f 347/1/4 345/1/4 349/1/4
f 348/5/4 347/5/4 349/5/4
f 343/1/4 348/1/4 350/1/4
f 348/1/4 349/1/4 350/1/4
f 350/1/4 349/1/4 351/1/4
f 345/4/4 342/4/4 352/4/4
f 351/1/4 349/1/4 352/1/4
f 349/1/4 345/1/4 352/1/4
f 351/2/4 352/2/4 354/2/4
f 352/4/4 342/4/4 355/4/4
f 354/2/4 352/2/4 355/2/4
f 353/1/4 354/1/4 356/1/4
f 354/1/4 355/1/4 356/1/4
f 356/1/4 355/1/4 357/1/4
f 353/1/4 356/1/4 358/1/4
f 356/5/4 357/5/4 358/5/4
f 357/1/4 355/1/4 359/1/4
f 358/5/4 357/5/4 359/5/4
f 353/1/4 358/1/4 360/1/4
f 358/1/4 359/1/4 360/1/4
f 359/1/4 355/1/4 361/1/4
f 360/1/4 359/1/4 361/1/4
f 355/4/4 342/4/4 362/4/4
f 361/1/4 355/1/4 362/1/4
f 361/4/4 362/4/4 363/4/4
f 362/4/4 342/4/4 364/4/4
f 363/4/4 362/4/4 364/4/4
f 365/2/4 366/2/4 368/2/4
f 368/2/4 366/2/4 369/2/4
f 367/2/4 368/2/4 370/2/4
f 368/3/4 369/3/4 371/3/4
f 370/2/4 368/2/4 371/2/4
f 371/3/4 369/3/4 372/3/4
f 371/2/4 372/2/4 373/2/4
f 373/2/4 372/2/4 374/2/4
f 375/2/4 376/2/4 377/2/4
f 377/2/4 376/2/4 378/2/4
f 382/2/5 380/2/5 379/2/5
f 383/2/5 380/2/5 382/2/5
f 386/2/5 382/2/5 381/2/5
f 386/2/5 384/2/5 383/2/5
f 386/2/5 383/2/5 382/2/5
f 387/2/5 384/2/5 386/2/5
f 389/2/5 386/2/5 385/2/5
f 389/2/5 388/2/5 387/2/5
f 389/2/5 387/2/5 386/2/5
f 390/2/5 388/2/5 389/2/5
f 391/2/5 388/2/5 390/2/5
f 392/2/5 388/2/5 391/2/5
f 393/2/5 391/2/5 390/2/5
f 394/2/5 391/2/5 393/2/5
f 395/2/5 391/2/5 394/2/5
f 396/2/5 391/2/5 395/2/5
f 397/2/5 395/2/5 394/2/5
f 398/2/5 395/2/5 397/2/5
f 403/2/5 400/2/5 399/2/5
f 404/2/5 400/2/5 403/2/5
f 405/2/5 402/2/5 401/2/5
f 406/2/5 402/2/5 405/2/5
f 411/2/5 408/2/5 407/2/5
f 411/2/5 410/2/5 409/2/5
f 411/2/5 409/2/5 408/2/5
f 412/2/5 410/2/5 411/2/5
f 417/1/5 414/1/5 413/1/5
f 418/1/5 414/1/5 417/1/5
f 419/1/5 416/1/5 415/1/5
f 420/1/5 416/1/5 419/1/5
f 423/2/5 422/2/5 421/2/5
f 424/2/5 422/2/5 423/2/5
f 429/4/5 426/4/5 425/4/5
f 430/4/5 426/4/5 429/4/5
f 431/4/5 428/4/5 427/4/5
f 432/4/5 428/4/5 431/4/5
f 433/2/6 434/2/6 437/2/6
f 437/2/6 434/2/6 438/2/6
f 435/2/6 436/2/6 439/2/6
f 439/2/6 436/2/6 440/2/6
f 441/2/6 442/2/6 445/2/6
f 445/2/6 442/2/6 446/2/6
f 443/2/6 444/2/6 447/2/6
f 447/2/6 444/2/6 448/2/6
f 449/2/6 450/2/6 453/2/6
f 453/2/6 450/2/6 454/2/6
f 451/2/6 452/2/6 457/2/6
f 457/2/6 452/2/6 458/2/6
f 454/2/6 455/2/6 459/2/6
f 459/2/6 455/2/6 460/2/6
f 456/2/6 457/2/6 461/2/6
f 461/2/6 457/2/6 462/2/6
f 463/2/6 464/2/6 465/2/6
f 465/2/6 464/2/6 466/2/6
f 467/2/6 468/2/6 472/2/6
f 472/2/6 468/2/6 473/2/6
f 469/2/6 470/2/6 474/2/6
f 474/2/6 470/2/6 475/2/6
f 471/2/6 472/2/6 477/2/6
f 477/2/6 472/2/6 478/2/6
f 475/2/6 476/2/6 479/2/6
f 479/2/6 476/2/6 480/2/6
f 481/2/6 482/2/6 486/2/6
f 486/2/6 482/2/6 487/2/6
f 487/2/6 482/2/6 488/2/6
f 483/2/6 484/2/6 489/2/6
f 489/2/6 484/2/6 490/2/6
f 490/2/6 484/2/6 491/2/6
f 485/2/6 486/2/6 494/2/6
f 486/2/6 487/2/6 494/2/6
f 494/2/6 487/2/6 495/2/6
f 491/2/6 492/2/6 496/2/6
f 490/2/6 491/2/6 496/2/6
f 496/2/6 492/2/6 497/2/6
f 493/2/6 494/2/6 499/2/6
f 499/2/6 494/2/6 500/2/6
f 497/2/6 498/2/6 501/2/6
f 501/2/6 498/2/6 502/2/6
f 503/2/6 504/2/6 507/2/6
f 507/2/6 504/2/6 508/2/6
f 505/2/6 506/2/6 509/2/6
f 509/2/6 506/2/6 510/2/6
f 511/2/6 512/2/6 514/2/6
f 514/2/6 512/2/6 515/2/6
f 513/2/6 514/2/6 518/2/6
f 515/2/6 516/2/6 518/2/6
f 514/2/6 515/2/6 518/2/6
f 518/2/6 516/2/6 519/2/6
f 517/2/6 518/2/6 521/2/6
f 521/2/6 518/2/6 522/2/6
f 519/2/6 520/2/6 523/2/6
f 523/2/6 520/2/6 524/2/6
f 517/2/6 521/2/6 525/2/6
f 525/2/6 521/2/6 526/2/6
f 524/2/6 520/2/6 527/2/6
f 527/2/6 520/2/6 528/2/6
f 529/2/6 530/2/6 532/2/6
f 532/2/6 530/2/6 533/2/6
f 531/2/6 532/2/6 536/2/6
f 533/2/6 534/2/6 536/2/6
f 532/2/6 533/2/6 536/2/6
f 536/2/6 534/2/6 537/2/6
f 537/2/6 534/2/6 538/2/6
f 538/2/6 534/2/6 539/2/6
f 535/4/6 536/4/6 541/4/6
f 541/4/6 536/4/6 542/4/6
f 539/4/6 540/4/6 543/4/6
f 543/4/6 540/4/6 544/4/6
f 537/2/6 538/2/6 545/2/6
f 545/2/6 538/2/6 546/2/6
f 547/2/6 548/2/6 552/2/6
f 549/2/6 550/2/6 553/2/6
f 551/4/6 552/4/6 555/4/6
f 552/2/6 548/2/6 555/2/6
f 555/2/6 548/2/6 556/2/6
f 549/2/6 553/2/6 557/2/6
f 553/4/6 554/4/6 558/4/6
f 557/2/6 553/2/6 558/2/6
f 556/4/6 557/4/6 559/4/6
f 555/4/6 556/4/6 559/4/6
f 557/4/6 558/4/6 559/4/6
f 551/4/6 555/4/6 559/4/6
f 558/4/6 554/4/6 560/4/6
f 559/4/6 558/4/6 560/4/6
