# MagicaVoxel @ Ephtracy

# group
o 

# material
mtllib grass003.mtl
usemtl palette

# normals
vn -1 0 0
vn 1 0 0
vn 0 0 1
vn 0 0 -1
vn 0 -1 0
vn 0 1 0

# texcoords
vt 0.626953 0.5
vt 0.630859 0.5
vt 0.892578 0.5

# verts
v -0.6 0 -0.1
v -0.6 0 -0.2
v -0.6 0.3 -0.1
v -0.6 0.3 -0.2
v -0.4 0 0
v -0.4 0 -0.1
v -0.4 0.1 -0.1
v -0.4 0.4 0
v -0.4 0.4 -0.1
v -0.2 0 -0.1
v -0.2 0 -0.2
v -0.2 0.2 -0.1
v -0.2 0.4 -0.1
v -0.2 0.4 -0.2
v -0.1 0 0.1
v -0.1 0 0
v -0.1 0.2 0.1
v -0.1 0.2 0
v 0 0 0
v 0 0 -0.1
v 0 0.1 -0.1
v 0 0.2 0
v 0 0.6 0
v 0 0.6 -0.1
v 0.1 0 0.1
v 0.1 0 0
v 0.1 0.3 0.1
v 0.1 0.3 0
v 0.2 0 -0.1
v 0.2 0 -0.2
v 0.2 0.2 -0.1
v 0.2 0.2 -0.2
v 0.3 0 0.1
v 0.3 0 0
v 0.3 0.3 0.1
v 0.3 0.3 0
v 0.4 0 0
v 0.4 0 -0.1
v 0.4 0.2 0
v 0.4 0.2 -0.1
v -0.5 0.1 -0.1
v -0.5 0.1 -0.2
v -0.5 0.3 -0.1
v -0.5 0.3 -0.2
v -0.4 0 -0.1
v -0.4 0 -0.2
v -0.4 0.1 -0.1
v -0.4 0.1 -0.2
v -0.3 0.2 0
v -0.3 0.2 -0.1
v -0.3 0.4 0
v -0.3 0.4 -0.1
v -0.2 0 0
v -0.2 0 -0.1
v -0.2 0.2 0
v -0.2 0.2 -0.1
v -0.1 0.1 -0.1
v -0.1 0.1 -0.2
v -0.1 0.4 -0.1
v -0.1 0.4 -0.2
v 0 0 0.1
v 0 0 0
v 0 0 -0.1
v 0 0 -0.2
v 0 0.1 -0.1
v 0 0.1 -0.2
v 0 0.2 0.1
v 0 0.2 0
v 0.1 0 0
v 0.1 0 -0.1
v 0.1 0.3 0
v 0.1 0.6 0
v 0.1 0.6 -0.1
v 0.2 0 0.1
v 0.2 0 0
v 0.2 0.3 0.1
v 0.2 0.3 0
v 0.3 0 -0.1
v 0.3 0 -0.2
v 0.3 0.2 -0.1
v 0.3 0.2 -0.2
v 0.4 0.1 0.1
v 0.4 0.1 0
v 0.4 0.2 0
v 0.4 0.3 0.1
v 0.4 0.3 0
v 0.5 0 0
v 0.5 0 -0.1
v 0.5 0.1 0
v 0.5 0.2 0
v 0.5 0.2 -0.1
v 0.6 0 0.1
v 0.6 0 0
v 0.6 0.1 0.1
v 0.6 0.1 0
v -0.1 0 0.1
v -0.1 0.2 0.1
v 0 0 0.1
v 0 0.2 0.1
v 0.1 0 0.1
v 0.1 0.3 0.1
v 0.2 0 0.1
v 0.2 0.3 0.1
v 0.3 0 0.1
v 0.3 0.3 0.1
v 0.4 0.1 0.1
v 0.4 0.3 0.1
v 0.6 0 0.1
v 0.6 0.1 0.1
v -0.4 0 0
v -0.4 0.4 0
v -0.3 0 0
v -0.3 0.2 0
v -0.3 0.4 0
v -0.2 0 0
v -0.2 0.2 0
v 0 0 0
v 0 0.2 0
v 0 0.6 0
v 0.1 0 0
v 0.1 0.3 0
v 0.1 0.6 0
v 0.4 0.1 0
v 0.4 0.2 0
v 0.5 0.1 0
v 0.5 0.2 0
v -0.6 0 -0.1
v -0.6 0.3 -0.1
v -0.5 0.1 -0.1
v -0.5 0.3 -0.1
v -0.4 0 -0.1
v -0.4 0.1 -0.1
v -0.2 0 -0.1
v -0.2 0.2 -0.1
v -0.2 0.4 -0.1
v -0.1 0.1 -0.1
v -0.1 0.4 -0.1
v 0 0 -0.1
v 0 0.1 -0.1
v 0.2 0 -0.1
v 0.2 0.2 -0.1
v 0.3 0 -0.1
v 0.3 0.2 -0.1
v -0.1 0 0
v -0.1 0.2 0
v 0 0 0
v 0 0.2 0
v 0.1 0 0
v 0.1 0.3 0
v 0.2 0 0
v 0.2 0.3 0
v 0.3 0 0
v 0.3 0.3 0
v 0.4 0 0
v 0.4 0.2 0
v 0.4 0.3 0
v 0.5 0 0
v 0.5 0.1 0
v 0.6 0 0
v 0.6 0.1 0
v -0.4 0 -0.1
v -0.4 0.1 -0.1
v -0.4 0.4 -0.1
v -0.3 0 -0.1
v -0.3 0.2 -0.1
v -0.3 0.4 -0.1
v -0.2 0 -0.1
v -0.2 0.2 -0.1
v 0 0 -0.1
v 0 0.1 -0.1
v 0 0.6 -0.1
v 0.1 0 -0.1
v 0.1 0.6 -0.1
v 0.4 0 -0.1
v 0.4 0.2 -0.1
v 0.5 0 -0.1
v 0.5 0.2 -0.1
v -0.6 0 -0.2
v -0.6 0.3 -0.2
v -0.5 0.1 -0.2
v -0.5 0.3 -0.2
v -0.4 0 -0.2
v -0.4 0.1 -0.2
v -0.2 0 -0.2
v -0.2 0.4 -0.2
v -0.1 0.1 -0.2
v -0.1 0.4 -0.2
v 0 0 -0.2
v 0 0.1 -0.2
v 0.2 0 -0.2
v 0.2 0.2 -0.2
v 0.3 0 -0.2
v 0.3 0.2 -0.2
v -0.1 0 0.1
v 0 0 0.1
v 0.1 0 0.1
v 0.2 0 0.1
v 0.3 0 0.1
v 0.6 0 0.1
v -0.4 0 0
v -0.3 0 0
v -0.2 0 0
v -0.1 0 0
v 0 0 0
v 0.1 0 0
v 0.2 0 0
v 0.3 0 0
v 0.4 0 0
v 0.5 0 0
v 0.6 0 0
v -0.6 0 -0.1
v -0.4 0 -0.1
v -0.3 0 -0.1
v -0.2 0 -0.1
v 0 0 -0.1
v 0.1 0 -0.1
v 0.2 0 -0.1
v 0.3 0 -0.1
v 0.4 0 -0.1
v 0.5 0 -0.1
v -0.6 0 -0.2
v -0.4 0 -0.2
v -0.2 0 -0.2
v 0 0 -0.2
v 0.2 0 -0.2
v 0.3 0 -0.2
v 0.4 0.1 0.1
v 0.6 0.1 0.1
v 0.4 0.1 0
v 0.5 0.1 0
v 0.6 0.1 0
v -0.5 0.1 -0.1
v -0.4 0.1 -0.1
v -0.1 0.1 -0.1
v 0 0.1 -0.1
v -0.5 0.1 -0.2
v -0.4 0.1 -0.2
v -0.1 0.1 -0.2
v 0 0.1 -0.2
v -0.1 0.2 0.1
v 0 0.2 0.1
v -0.3 0.2 0
v -0.2 0.2 0
v -0.1 0.2 0
v 0 0.2 0
v 0.4 0.2 0
v 0.5 0.2 0
v -0.3 0.2 -0.1
v -0.2 0.2 -0.1
v 0.2 0.2 -0.1
v 0.3 0.2 -0.1
v 0.4 0.2 -0.1
v 0.5 0.2 -0.1
v 0.2 0.2 -0.2
v 0.3 0.2 -0.2
v 0.1 0.3 0.1
v 0.2 0.3 0.1
v 0.3 0.3 0.1
v 0.4 0.3 0.1
v 0.1 0.3 0
v 0.2 0.3 0
v 0.3 0.3 0
v 0.4 0.3 0
v -0.6 0.3 -0.1
v -0.5 0.3 -0.1
v -0.6 0.3 -0.2
v -0.5 0.3 -0.2
v -0.4 0.4 0
v -0.3 0.4 0
v -0.4 0.4 -0.1
v -0.3 0.4 -0.1
v -0.2 0.4 -0.1
v -0.1 0.4 -0.1
v -0.2 0.4 -0.2
v -0.1 0.4 -0.2
v 0 0.6 0
v 0.1 0.6 0
v 0 0.6 -0.1
v 0.1 0.6 -0.1

# faces
f 3/1/1 2/1/1 1/1/1
f 4/1/1 2/1/1 3/1/1
f 7/3/1 6/3/1 5/3/1
f 8/3/1 7/3/1 5/3/1
f 9/3/1 7/3/1 8/3/1
f 12/2/1 11/2/1 10/2/1
f 13/2/1 11/2/1 12/2/1
f 14/2/1 11/2/1 13/2/1
f 17/1/1 16/1/1 15/1/1
f 18/1/1 16/1/1 17/1/1
f 21/2/1 20/2/1 19/2/1
f 22/2/1 21/2/1 19/2/1
f 23/2/1 21/2/1 22/2/1
f 24/2/1 21/2/1 23/2/1
f 27/3/1 26/3/1 25/3/1
f 28/3/1 26/3/1 27/3/1
f 31/1/1 30/1/1 29/1/1
f 32/1/1 30/1/1 31/1/1
f 35/2/1 34/2/1 33/2/1
f 36/2/1 34/2/1 35/2/1
f 39/1/1 38/1/1 37/1/1
f 40/1/1 38/1/1 39/1/1
f 41/1/2 42/1/2 43/1/2
f 43/1/2 42/1/2 44/1/2
f 45/1/2 46/1/2 47/1/2
f 47/1/2 46/1/2 48/1/2
f 49/3/2 50/3/2 51/3/2
f 51/3/2 50/3/2 52/3/2
f 53/1/2 54/1/2 55/1/2
f 55/1/2 54/1/2 56/1/2
f 57/2/2 58/2/2 59/2/2
f 59/2/2 58/2/2 60/2/2
f 63/2/2 64/2/2 65/2/2
f 65/2/2 64/2/2 66/2/2
f 61/1/2 62/1/2 67/1/2
f 67/1/2 62/1/2 68/1/2
f 69/2/2 70/2/2 71/2/2
f 71/2/2 70/2/2 72/2/2
f 72/2/2 70/2/2 73/2/2
f 74/3/2 75/3/2 76/3/2
f 76/3/2 75/3/2 77/3/2
f 78/1/2 79/1/2 80/1/2
f 80/1/2 79/1/2 81/1/2
f 82/2/2 83/2/2 84/2/2
f 82/2/2 84/2/2 85/2/2
f 85/2/2 84/2/2 86/2/2
f 87/1/2 88/1/2 89/1/2
f 89/1/2 88/1/2 90/1/2
f 90/1/2 88/1/2 91/1/2
f 92/2/2 93/2/2 94/2/2
f 94/2/2 93/2/2 95/2/2
f 98/1/3 97/1/3 96/1/3
f 99/1/3 97/1/3 98/1/3
f 102/3/3 101/3/3 100/3/3
f 103/3/3 101/3/3 102/3/3
f 106/2/3 105/2/3 104/2/3
f 107/2/3 105/2/3 106/2/3
f 108/2/3 106/2/3 104/2/3
f 109/2/3 106/2/3 108/2/3
f 112/3/3 111/3/3 110/3/3
f 113/3/3 111/3/3 112/3/3
f 114/3/3 111/3/3 113/3/3
f 115/1/3 113/1/3 112/1/3
f 116/1/3 113/1/3 115/1/3
f 120/2/3 118/2/3 117/2/3
f 120/2/3 119/2/3 118/2/3
f 121/2/3 119/2/3 120/2/3
f 122/2/3 119/2/3 121/2/3
f 125/1/3 124/1/3 123/1/3
f 126/1/3 124/1/3 125/1/3
f 129/1/3 128/1/3 127/1/3
f 130/1/3 128/1/3 129/1/3
f 131/1/3 129/1/3 127/1/3
f 132/1/3 129/1/3 131/1/3
f 136/2/3 134/2/3 133/2/3
f 136/2/3 135/2/3 134/2/3
f 137/2/3 135/2/3 136/2/3
f 138/2/3 136/2/3 133/2/3
f 139/2/3 136/2/3 138/2/3
f 142/1/3 141/1/3 140/1/3
f 143/1/3 141/1/3 142/1/3
f 144/1/4 145/1/4 146/1/4
f 146/1/4 145/1/4 147/1/4
f 148/3/4 149/3/4 150/3/4
f 150/3/4 149/3/4 151/3/4
f 152/2/4 153/2/4 154/2/4
f 154/2/4 153/2/4 155/2/4
f 155/2/4 153/2/4 156/2/4
f 157/2/4 158/2/4 159/2/4
f 159/2/4 158/2/4 160/2/4
f 161/3/4 162/3/4 164/3/4
f 162/3/4 163/3/4 164/3/4
f 164/3/4 163/3/4 165/3/4
f 165/3/4 163/3/4 166/3/4
f 164/1/4 165/1/4 167/1/4
f 167/1/4 165/1/4 168/1/4
f 169/2/4 170/2/4 172/2/4
f 170/2/4 171/2/4 172/2/4
f 172/2/4 171/2/4 173/2/4
f 174/1/4 175/1/4 176/1/4
f 176/1/4 175/1/4 177/1/4
f 178/1/4 179/1/4 180/1/4
f 180/1/4 179/1/4 181/1/4
f 178/1/4 180/1/4 182/1/4
f 182/1/4 180/1/4 183/1/4
f 184/2/4 185/2/4 186/2/4
f 186/2/4 185/2/4 187/2/4
f 184/2/4 186/2/4 188/2/4
f 188/2/4 186/2/4 189/2/4
f 190/1/4 191/1/4 192/1/4
f 192/1/4 191/1/4 193/1/4
f 203/1/5 195/1/5 194/1/5
f 204/1/5 195/1/5 203/1/5
f 205/3/5 197/3/5 196/3/5
f 206/3/5 197/3/5 205/3/5
f 207/2/5 199/2/5 198/2/5
f 208/2/5 199/2/5 207/2/5
f 209/2/5 199/2/5 208/2/5
f 210/2/5 199/2/5 209/2/5
f 212/3/5 201/3/5 200/3/5
f 213/1/5 202/1/5 201/1/5
f 213/3/5 201/3/5 212/3/5
f 214/1/5 202/1/5 213/1/5
f 215/2/5 205/2/5 204/2/5
f 216/2/5 205/2/5 215/2/5
f 219/1/5 209/1/5 208/1/5
f 220/1/5 209/1/5 219/1/5
f 221/1/5 212/1/5 211/1/5
f 222/1/5 212/1/5 221/1/5
f 223/2/5 215/2/5 214/2/5
f 224/2/5 215/2/5 223/2/5
f 225/1/5 218/1/5 217/1/5
f 226/1/5 218/1/5 225/1/5
f 227/2/6 228/2/6 229/2/6
f 229/2/6 228/2/6 230/2/6
f 230/2/6 228/2/6 231/2/6
f 232/1/6 233/1/6 236/1/6
f 236/1/6 233/1/6 237/1/6
f 234/2/6 235/2/6 238/2/6
f 238/2/6 235/2/6 239/2/6
f 240/1/6 241/1/6 244/1/6
f 244/1/6 241/1/6 245/1/6
f 242/1/6 243/1/6 248/1/6
f 248/1/6 243/1/6 249/1/6
f 246/1/6 247/1/6 252/1/6
f 252/1/6 247/1/6 253/1/6
f 250/1/6 251/1/6 254/1/6
f 254/1/6 251/1/6 255/1/6
f 256/3/6 257/3/6 260/3/6
f 260/3/6 257/3/6 261/3/6
f 258/2/6 259/2/6 262/2/6
f 262/2/6 259/2/6 263/2/6
f 264/1/6 265/1/6 266/1/6
f 266/1/6 265/1/6 267/1/6
f 268/3/6 269/3/6 270/3/6
f 270/3/6 269/3/6 271/3/6
f 272/2/6 273/2/6 274/2/6
f 274/2/6 273/2/6 275/2/6
f 276/2/6 277/2/6 278/2/6
f 278/2/6 277/2/6 279/2/6
