# MagicaVoxel @ Ephtracy

# group
o 

# material
mtllib grass002.mtl
usemtl palette

# normals
vn -1 0 0
vn 1 0 0
vn 0 0 1
vn 0 0 -1
vn 0 -1 0
vn 0 1 0

# texcoords
vt 0.603516 0.5
vt 0.626953 0.5
vt 0.630859 0.5
vt 0.892578 0.5
vt 0.900391 0.5

# verts
v -0.6 0 0
v -0.6 0 -0.1
v -0.6 0.3 0
v -0.6 0.3 -0.1
v -0.5 0.3 0
v -0.5 0.3 -0.1
v -0.5 0.8 0
v -0.5 0.8 -0.1
v -0.3 0.2 0
v -0.3 0.2 -0.1
v -0.3 0.5 0
v -0.3 0.5 -0.1
v -0.1 0 0.1
v -0.1 0 0
v -0.1 0.3 0.1
v -0.1 0.3 0
v 0 0.2 0
v 0 0.2 -0.1
v 0 0.3 0
v 0 0.6 0
v 0 0.6 -0.1
v 0.2 0 0.1
v 0.2 0 0
v 0.2 0.1 0.1
v 0.2 0.1 0
v 0.3 0 0
v 0.3 0 -0.1
v 0.3 0.1 0
v 0.3 0.3 0
v 0.3 0.3 -0.1
v 0.4 0 0.1
v 0.4 0 0
v 0.4 0.2 0.1
v 0.4 0.2 0
v -0.4 0.2 0
v -0.4 0.2 -0.1
v -0.4 0.8 0
v -0.4 0.8 -0.1
v -0.2 0.4 0
v -0.2 0.4 -0.1
v -0.2 0.5 0
v -0.2 0.5 -0.1
v -0.1 0.2 0
v -0.1 0.2 -0.1
v -0.1 0.3 0
v -0.1 0.4 0
v -0.1 0.4 -0.1
v 0 0.1 0.1
v 0 0.1 0
v 0 0.3 0.1
v 0 0.3 0
v 0.1 0 0.1
v 0.1 0 0
v 0.1 0.1 0.1
v 0.1 0.1 0
v 0.1 0.5 0
v 0.1 0.5 -0.1
v 0.1 0.6 0
v 0.1 0.6 -0.1
v 0.2 0 0
v 0.2 0 -0.1
v 0.2 0.1 0
v 0.2 0.5 0
v 0.2 0.5 -0.1
v 0.3 0 0.1
v 0.3 0 0
v 0.3 0.1 0.1
v 0.3 0.1 0
v 0.4 0 0
v 0.4 0 -0.1
v 0.4 0.2 0
v 0.4 0.3 0
v 0.4 0.3 -0.1
v 0.5 0 0.1
v 0.5 0 0
v 0.5 0.2 0.1
v 0.5 0.2 0
v -0.1 0 0.1
v -0.1 0.3 0.1
v 0 0.1 0.1
v 0 0.3 0.1
v 0.1 0 0.1
v 0.1 0.1 0.1
v 0.2 0 0.1
v 0.2 0.1 0.1
v 0.3 0 0.1
v 0.3 0.1 0.1
v 0.4 0 0.1
v 0.4 0.2 0.1
v 0.5 0 0.1
v 0.5 0.2 0.1
v -0.6 0 0
v -0.6 0.3 0
v -0.5 0 0
v -0.5 0.3 0
v -0.5 0.8 0
v -0.4 0.2 0
v -0.4 0.8 0
v -0.3 0 0
v -0.3 0.2 0
v -0.3 0.5 0
v -0.2 0.4 0
v -0.2 0.5 0
v -0.1 0 0
v -0.1 0.3 0
v -0.1 0.4 0
v 0 0.1 0
v 0 0.3 0
v 0 0.6 0
v 0.1 0 0
v 0.1 0.1 0
v 0.1 0.5 0
v 0.1 0.6 0
v 0.2 0 0
v 0.2 0.1 0
v 0.2 0.5 0
v 0.3 0 0
v 0.3 0.1 0
v 0.3 0.3 0
v 0.4 0 0
v 0.4 0.2 0
v 0.4 0.3 0
v -0.1 0.2 0
v -0.1 0.3 0
v 0 0.2 0
v 0 0.3 0
v 0.2 0 0
v 0.2 0.1 0
v 0.3 0 0
v 0.3 0.1 0
v 0.4 0 0
v 0.4 0.2 0
v 0.5 0 0
v 0.5 0.2 0
v -0.6 0 -0.1
v -0.6 0.3 -0.1
v -0.5 0 -0.1
v -0.5 0.3 -0.1
v -0.5 0.8 -0.1
v -0.4 0.2 -0.1
v -0.4 0.8 -0.1
v -0.3 0 -0.1
v -0.3 0.2 -0.1
v -0.3 0.5 -0.1
v -0.2 0.4 -0.1
v -0.2 0.5 -0.1
v -0.1 0.2 -0.1
v -0.1 0.4 -0.1
v 0 0 -0.1
v 0 0.2 -0.1
v 0 0.6 -0.1
v 0.1 0.5 -0.1
v 0.1 0.6 -0.1
v 0.2 0 -0.1
v 0.2 0.5 -0.1
v 0.3 0 -0.1
v 0.3 0.3 -0.1
v 0.4 0 -0.1
v 0.4 0.3 -0.1
v -0.1 0 0.1
v 0.1 0 0.1
v 0.2 0 0.1
v 0.3 0 0.1
v 0.4 0 0.1
v 0.5 0 0.1
v -0.6 0 0
v -0.5 0 0
v -0.3 0 0
v -0.1 0 0
v 0 0 0
v 0.1 0 0
v 0.2 0 0
v 0.3 0 0
v 0.4 0 0
v 0.5 0 0
v -0.6 0 -0.1
v -0.5 0 -0.1
v -0.3 0 -0.1
v 0 0 -0.1
v 0.2 0 -0.1
v 0.3 0 -0.1
v 0.4 0 -0.1
v 0 0.1 0.1
v 0.1 0.1 0.1
v 0.2 0.1 0.1
v 0.3 0.1 0.1
v 0 0.1 0
v 0.1 0.1 0
v 0.2 0.1 0
v 0.3 0.1 0
v 0.4 0.2 0.1
v 0.5 0.2 0.1
v -0.4 0.2 0
v -0.3 0.2 0
v -0.1 0.2 0
v 0 0.2 0
v 0.4 0.2 0
v 0.5 0.2 0
v -0.4 0.2 -0.1
v -0.3 0.2 -0.1
v -0.1 0.2 -0.1
v 0 0.2 -0.1
v -0.1 0.3 0.1
v 0 0.3 0.1
v -0.6 0.3 0
v -0.5 0.3 0
v -0.1 0.3 0
v 0 0.3 0
v 0.3 0.3 0
v 0.4 0.3 0
v -0.6 0.3 -0.1
v -0.5 0.3 -0.1
v 0.3 0.3 -0.1
v 0.4 0.3 -0.1
v -0.2 0.4 0
v -0.1 0.4 0
v -0.2 0.4 -0.1
v -0.1 0.4 -0.1
v -0.3 0.5 0
v -0.2 0.5 0
v 0.1 0.5 0
v 0.2 0.5 0
v -0.3 0.5 -0.1
v -0.2 0.5 -0.1
v 0.1 0.5 -0.1
v 0.2 0.5 -0.1
v 0 0.6 0
v 0.1 0.6 0
v 0 0.6 -0.1
v 0.1 0.6 -0.1
v -0.5 0.8 0
v -0.4 0.8 0
v -0.5 0.8 -0.1
v -0.4 0.8 -0.1

# faces
f 3/2/1 2/2/1 1/2/1
f 4/2/1 2/2/1 3/2/1
f 7/4/1 6/4/1 5/4/1
f 8/4/1 6/4/1 7/4/1
f 11/2/1 10/2/1 9/2/1
f 12/2/1 10/2/1 11/2/1
f 15/3/1 14/3/1 13/3/1
f 16/3/1 14/3/1 15/3/1
f 19/5/1 18/5/1 17/5/1
f 20/5/1 18/5/1 19/5/1
f 21/5/1 18/5/1 20/5/1
f 24/2/1 23/2/1 22/2/1
f 25/2/1 23/2/1 24/2/1
f 28/1/1 27/1/1 26/1/1
f 29/1/1 27/1/1 28/1/1
f 30/1/1 27/1/1 29/1/1
f 33/2/1 32/2/1 31/2/1
f 34/2/1 32/2/1 33/2/1
f 35/4/2 36/4/2 37/4/2
f 37/4/2 36/4/2 38/4/2
f 39/2/2 40/2/2 41/2/2
f 41/2/2 40/2/2 42/2/2
f 43/2/2 44/2/2 45/2/2
f 45/2/2 44/2/2 46/2/2
f 46/2/2 44/2/2 47/2/2
f 48/3/2 49/3/2 50/3/2
f 50/3/2 49/3/2 51/3/2
f 52/3/2 53/3/2 54/3/2
f 54/3/2 53/3/2 55/3/2
f 56/5/2 57/5/2 58/5/2
f 58/5/2 57/5/2 59/5/2
f 60/5/2 61/5/2 62/5/2
f 62/5/2 61/5/2 63/5/2
f 63/5/2 61/5/2 64/5/2
f 65/2/2 66/2/2 67/2/2
f 67/2/2 66/2/2 68/2/2
f 69/1/2 70/1/2 71/1/2
f 71/1/2 70/1/2 72/1/2
f 72/1/2 70/1/2 73/1/2
f 74/2/2 75/2/2 76/2/2
f 76/2/2 75/2/2 77/2/2
f 80/3/3 79/3/3 78/3/3
f 81/3/3 79/3/3 80/3/3
f 82/3/3 80/3/3 78/3/3
f 83/3/3 80/3/3 82/3/3
f 86/2/3 85/2/3 84/2/3
f 87/2/3 85/2/3 86/2/3
f 90/2/3 89/2/3 88/2/3
f 91/2/3 89/2/3 90/2/3
f 94/2/3 93/2/3 92/2/3
f 95/2/3 93/2/3 94/2/3
f 97/4/3 95/4/3 94/4/3
f 97/4/3 96/4/3 95/4/3
f 98/4/3 96/4/3 97/4/3
f 99/4/3 97/4/3 94/4/3
f 100/4/3 97/4/3 99/4/3
f 102/2/3 100/2/3 99/2/3
f 102/2/3 101/2/3 100/2/3
f 103/2/3 101/2/3 102/2/3
f 104/2/3 102/2/3 99/2/3
f 105/2/3 102/2/3 104/2/3
f 106/2/3 102/2/3 105/2/3
f 111/5/3 108/5/3 107/5/3
f 111/5/3 109/5/3 108/5/3
f 112/5/3 109/5/3 111/5/3
f 113/5/3 109/5/3 112/5/3
f 114/5/3 111/5/3 110/5/3
f 114/5/3 112/5/3 111/5/3
f 115/5/3 112/5/3 114/5/3
f 116/5/3 112/5/3 115/5/3
f 120/1/3 118/1/3 117/1/3
f 120/1/3 119/1/3 118/1/3
f 121/1/3 119/1/3 120/1/3
f 122/1/3 119/1/3 121/1/3
f 123/3/4 124/3/4 125/3/4
f 125/3/4 124/3/4 126/3/4
f 127/2/4 128/2/4 129/2/4
f 129/2/4 128/2/4 130/2/4
f 131/2/4 132/2/4 133/2/4
f 133/2/4 132/2/4 134/2/4
f 135/2/4 136/2/4 137/2/4
f 137/2/4 136/2/4 138/2/4
f 137/4/4 138/4/4 140/4/4
f 138/4/4 139/4/4 140/4/4
f 140/4/4 139/4/4 141/4/4
f 137/4/4 140/4/4 142/4/4
f 142/4/4 140/4/4 143/4/4
f 142/2/4 143/2/4 145/2/4
f 143/2/4 144/2/4 145/2/4
f 145/2/4 144/2/4 146/2/4
f 142/2/4 145/2/4 147/2/4
f 147/2/4 145/2/4 148/2/4
f 142/2/4 147/2/4 149/2/4
f 149/2/4 147/2/4 150/2/4
f 149/5/4 150/5/4 152/5/4
f 150/5/4 151/5/4 152/5/4
f 152/5/4 151/5/4 153/5/4
f 149/5/4 152/5/4 154/5/4
f 154/5/4 152/5/4 155/5/4
f 156/1/4 157/1/4 158/1/4
f 158/1/4 157/1/4 159/1/4
f 169/3/5 161/3/5 160/3/5
f 170/3/5 161/3/5 169/3/5
f 171/3/5 161/3/5 170/3/5
f 172/2/5 163/2/5 162/2/5
f 173/2/5 163/2/5 172/2/5
f 174/2/5 165/2/5 164/2/5
f 175/2/5 165/2/5 174/2/5
f 176/2/5 167/2/5 166/2/5
f 177/4/5 168/4/5 167/4/5
f 177/2/5 167/2/5 176/2/5
f 178/2/5 169/2/5 168/2/5
f 178/4/5 168/4/5 177/4/5
f 178/2/5 170/2/5 169/2/5
f 179/5/5 171/5/5 170/5/5
f 179/2/5 170/2/5 178/2/5
f 179/5/5 172/5/5 171/5/5
f 180/5/5 172/5/5 179/5/5
f 181/1/5 174/1/5 173/1/5
f 182/1/5 174/1/5 181/1/5
f 183/3/6 184/3/6 187/3/6
f 187/3/6 184/3/6 188/3/6
f 185/2/6 186/2/6 189/2/6
f 189/2/6 186/2/6 190/2/6
f 191/2/6 192/2/6 197/2/6
f 197/2/6 192/2/6 198/2/6
f 193/4/6 194/4/6 199/4/6
f 199/4/6 194/4/6 200/4/6
f 195/2/6 196/2/6 201/2/6
f 201/2/6 196/2/6 202/2/6
f 203/3/6 204/3/6 207/3/6
f 207/3/6 204/3/6 208/3/6
f 205/2/6 206/2/6 211/2/6
f 211/2/6 206/2/6 212/2/6
f 209/1/6 210/1/6 213/1/6
f 213/1/6 210/1/6 214/1/6
f 215/2/6 216/2/6 217/2/6
f 217/2/6 216/2/6 218/2/6
f 219/2/6 220/2/6 223/2/6
f 223/2/6 220/2/6 224/2/6
f 221/5/6 222/5/6 225/5/6
f 225/5/6 222/5/6 226/5/6
f 227/5/6 228/5/6 229/5/6
f 229/5/6 228/5/6 230/5/6
f 231/4/6 232/4/6 233/4/6
f 233/4/6 232/4/6 234/4/6
