# MagicaVoxel @ Ephtracy

# group
o 

# material
mtllib stone004.mtl
usemtl palette

# normals
vn -1 0 0
vn 1 0 0
vn 0 0 1
vn 0 0 -1
vn 0 -1 0
vn 0 1 0

# texcoords
vt 0.970703 0.5
vt 0.974609 0.5

# verts
v -0.5 0.2 0.3
v -0.5 0.2 -0.1
v -0.5 0.4 0.3
v -0.5 0.4 -0.1
v -0.4 0.1 0.1
v -0.4 0.1 -0.2
v -0.4 0.2 0.1
v -0.4 0.2 -0.1
v -0.4 0.4 0.1
v -0.4 0.4 -0.1
v -0.4 0.5 0.1
v -0.4 0.5 -0.2
v -0.3 0 0.1
v -0.3 0 0
v -0.3 0.1 0.2
v -0.3 0.1 0.1
v -0.3 0.1 0
v -0.3 0.2 0.4
v -0.3 0.2 0.3
v -0.3 0.2 0.2
v -0.3 0.2 0.1
v -0.3 0.3 0.4
v -0.3 0.3 0.3
v -0.2 0 0.3
v -0.2 0 0.1
v -0.2 0.1 0.3
v -0.2 0.1 0.2
v -0.2 0.1 0.1
v -0.2 0.2 0.3
v -0.2 0.2 0.2
v -0.2 0.3 0.3
v -0.2 0.3 0.2
v -0.2 0.3 0.1
v -0.2 0.4 0.3
v -0.2 0.4 0.1
v -0.3 0.3 0.3
v -0.3 0.3 0.2
v -0.3 0.3 0.1
v -0.3 0.4 0.3
v -0.3 0.4 0.1
v -0.1 0 0.3
v -0.1 0 0
v -0.1 0.1 0.3
v -0.1 0.1 0.1
v -0.1 0.1 0
v -0.1 0.2 0.3
v -0.1 0.2 0.1
v 0 0.1 0.1
v 0 0.1 -0.2
v 0 0.2 0.4
v 0 0.2 0.3
v 0 0.2 0.1
v 0 0.2 0
v 0 0.3 0.4
v 0 0.3 0.3
v 0 0.4 0.1
v 0 0.4 0
v 0 0.5 0.1
v 0 0.5 -0.2
v 0.1 0.2 0.3
v 0.1 0.2 0
v 0.1 0.4 0.3
v 0.1 0.4 0
v -0.3 0.2 0.4
v -0.3 0.3 0.4
v 0 0.2 0.4
v 0 0.3 0.4
v -0.5 0.2 0.3
v -0.5 0.4 0.3
v -0.4 0.3 0.3
v -0.4 0.4 0.3
v -0.3 0.2 0.3
v -0.3 0.3 0.3
v -0.3 0.4 0.3
v -0.2 0 0.3
v -0.2 0.1 0.3
v -0.2 0.2 0.3
v -0.2 0.3 0.3
v -0.2 0.4 0.3
v -0.1 0 0.3
v -0.1 0.1 0.3
v -0.1 0.2 0.3
v 0 0.2 0.3
v 0 0.3 0.3
v 0.1 0.2 0.3
v 0.1 0.4 0.3
v -0.3 0.1 0.2
v -0.3 0.2 0.2
v -0.2 0.1 0.2
v -0.2 0.2 0.2
v -0.4 0.1 0.1
v -0.4 0.2 0.1
v -0.4 0.4 0.1
v -0.4 0.5 0.1
v -0.3 0 0.1
v -0.3 0.1 0.1
v -0.3 0.2 0.1
v -0.3 0.3 0.1
v -0.3 0.4 0.1
v -0.2 0 0.1
v -0.2 0.1 0.1
v -0.2 0.3 0.1
v -0.2 0.4 0.1
v -0.1 0.1 0.1
v -0.1 0.2 0.1
v -0.1 0.4 0.1
v -0.1 0.5 0.1
v 0 0.1 0.1
v 0 0.2 0.1
v 0 0.4 0.1
v 0 0.5 0.1
v -0.3 0 0
v -0.3 0.1 0
v -0.2 0.1 0
v -0.1 0 0
v -0.1 0.1 0
v 0 0.2 0
v 0 0.4 0
v 0.1 0.2 0
v 0.1 0.4 0
v -0.5 0.2 -0.1
v -0.5 0.4 -0.1
v -0.4 0.2 -0.1
v -0.4 0.4 -0.1
v -0.4 0.1 -0.2
v -0.4 0.5 -0.2
v -0.2 0.1 -0.2
v -0.2 0.5 -0.2
v 0 0.1 -0.2
v 0 0.5 -0.2
v -0.2 0 0.3
v -0.1 0 0.3
v -0.3 0 0.1
v -0.2 0 0.1
v -0.3 0 0
v -0.1 0 0
v -0.3 0.1 0.2
v -0.2 0.1 0.2
v -0.4 0.1 0.1
v -0.3 0.1 0.1
v -0.2 0.1 0.1
v -0.1 0.1 0.1
v 0 0.1 0.1
v -0.3 0.1 0
v -0.2 0.1 0
v -0.1 0.1 0
v -0.4 0.1 -0.2
v -0.2 0.1 -0.2
v 0 0.1 -0.2
v -0.3 0.2 0.4
v 0 0.2 0.4
v -0.5 0.2 0.3
v -0.3 0.2 0.3
v -0.2 0.2 0.3
v -0.1 0.2 0.3
v 0 0.2 0.3
v 0.1 0.2 0.3
v -0.4 0.2 0.2
v -0.3 0.2 0.2
v -0.2 0.2 0.2
v -0.4 0.2 0.1
v -0.3 0.2 0.1
v -0.1 0.2 0.1
v 0 0.2 0.1
v 0 0.2 0
v 0.1 0.2 0
v -0.5 0.2 -0.1
v -0.4 0.2 -0.1
v -0.3 0.3 0.4
v 0 0.3 0.4
v -0.3 0.3 0.3
v -0.2 0.3 0.3
v 0 0.3 0.3
v -0.3 0.3 0.2
v -0.2 0.3 0.2
v -0.3 0.3 0.1
v -0.2 0.3 0.1
v -0.5 0.4 0.3
v -0.4 0.4 0.3
v -0.3 0.4 0.3
v -0.2 0.4 0.3
v 0.1 0.4 0.3
v -0.4 0.4 0.1
v -0.3 0.4 0.1
v -0.2 0.4 0.1
v -0.1 0.4 0.1
v 0 0.4 0.1
v 0 0.4 0
v 0.1 0.4 0
v -0.5 0.4 -0.1
v -0.4 0.4 -0.1
v -0.4 0.5 0.1
v -0.1 0.5 0.1
v 0 0.5 0.1
v -0.2 0.5 -0.1
v -0.1 0.5 -0.1
v -0.4 0.5 -0.2
v -0.2 0.5 -0.2
v 0 0.5 -0.2

# faces
f 3/2/1 2/2/1 1/2/1
f 4/2/1 2/2/1 3/2/1
f 7/1/1 6/1/1 5/1/1
f 8/1/1 6/1/1 7/1/1
f 10/1/1 6/1/1 8/1/1
f 11/1/1 10/1/1 9/1/1
f 12/1/1 6/1/1 10/1/1
f 12/1/1 10/1/1 11/1/1
f 16/2/1 14/2/1 13/2/1
f 17/2/1 14/2/1 16/2/1
f 20/1/1 16/1/1 15/1/1
f 21/1/1 16/1/1 20/1/1
f 22/2/1 19/2/1 18/2/1
f 23/2/1 19/2/1 22/2/1
f 26/2/1 25/2/1 24/2/1
f 27/2/1 25/2/1 26/2/1
f 28/2/1 25/2/1 27/2/1
f 29/1/1 27/1/1 26/1/1
f 30/1/1 27/1/1 29/1/1
f 34/1/1 32/1/1 31/1/1
f 34/1/1 33/1/1 32/1/1
f 35/1/1 33/1/1 34/1/1
f 36/1/2 37/1/2 39/1/2
f 37/1/2 38/1/2 39/1/2
f 39/1/2 38/1/2 40/1/2
f 41/2/2 42/2/2 43/2/2
f 43/2/2 42/2/2 44/2/2
f 44/2/2 42/2/2 45/2/2
f 43/1/2 44/1/2 46/1/2
f 46/1/2 44/1/2 47/1/2
f 48/2/2 49/2/2 52/2/2
f 52/2/2 49/2/2 53/2/2
f 50/2/2 51/2/2 54/2/2
f 54/2/2 51/2/2 55/2/2
f 53/2/2 49/2/2 57/2/2
f 56/2/2 57/2/2 58/2/2
f 57/2/2 49/2/2 59/2/2
f 58/2/2 57/2/2 59/2/2
f 60/1/2 61/1/2 62/1/2
f 62/1/2 61/1/2 63/1/2
f 66/2/3 65/2/3 64/2/3
f 67/2/3 65/2/3 66/2/3
f 70/2/3 69/2/3 68/2/3
f 71/2/3 69/2/3 70/2/3
f 72/2/3 70/2/3 68/2/3
f 73/1/3 71/1/3 70/1/3
f 73/2/3 70/2/3 72/2/3
f 74/1/3 71/1/3 73/1/3
f 80/2/3 76/2/3 75/2/3
f 81/1/3 77/1/3 76/1/3
f 81/2/3 76/2/3 80/2/3
f 82/1/3 77/1/3 81/1/3
f 84/1/3 79/1/3 78/1/3
f 85/1/3 84/1/3 83/1/3
f 86/1/3 79/1/3 84/1/3
f 86/1/3 84/1/3 85/1/3
f 89/1/3 88/1/3 87/1/3
f 90/1/3 88/1/3 89/1/3
f 96/1/3 92/1/3 91/1/3
f 97/1/3 92/1/3 96/1/3
f 99/1/3 94/1/3 93/1/3
f 100/2/3 96/2/3 95/2/3
f 101/2/3 96/2/3 100/2/3
f 102/1/3 99/1/3 98/1/3
f 103/1/3 94/1/3 99/1/3
f 103/1/3 99/1/3 102/1/3
f 106/1/3 94/1/3 103/1/3
f 107/1/3 94/1/3 106/1/3
f 108/2/3 105/2/3 104/2/3
f 109/2/3 105/2/3 108/2/3
f 110/2/3 107/2/3 106/2/3
f 111/2/3 107/2/3 110/2/3
f 112/2/4 113/2/4 114/2/4
f 112/2/4 114/2/4 115/2/4
f 115/2/4 114/2/4 116/2/4
f 117/1/4 118/1/4 119/1/4
f 119/1/4 118/1/4 120/1/4
f 121/2/4 122/2/4 123/2/4
f 123/2/4 122/2/4 124/2/4
f 125/1/4 126/1/4 127/1/4
f 127/1/4 126/1/4 128/1/4
f 127/2/4 128/2/4 129/2/4
f 129/2/4 128/2/4 130/2/4
f 134/2/5 132/2/5 131/2/5
f 135/2/5 134/2/5 133/2/5
f 136/2/5 132/2/5 134/2/5
f 136/2/5 134/2/5 135/2/5
f 140/1/5 138/1/5 137/1/5
f 141/1/5 138/1/5 140/1/5
f 144/1/5 140/1/5 139/1/5
f 146/2/5 143/2/5 142/2/5
f 147/1/5 145/1/5 144/1/5
f 147/1/5 144/1/5 139/1/5
f 148/2/5 146/2/5 145/2/5
f 148/1/5 145/1/5 147/1/5
f 149/2/5 143/2/5 146/2/5
f 149/2/5 146/2/5 148/2/5
f 153/2/5 151/2/5 150/2/5
f 154/2/5 151/2/5 153/2/5
f 155/2/5 151/2/5 154/2/5
f 156/2/5 151/2/5 155/2/5
f 158/2/5 153/2/5 152/2/5
f 158/2/5 154/2/5 153/2/5
f 159/2/5 154/2/5 158/2/5
f 160/2/5 154/2/5 159/2/5
f 161/2/5 158/2/5 152/2/5
f 161/1/5 159/1/5 158/1/5
f 162/1/5 159/1/5 161/1/5
f 163/1/5 157/1/5 156/1/5
f 163/1/5 156/1/5 155/1/5
f 164/1/5 157/1/5 163/1/5
f 165/1/5 157/1/5 164/1/5
f 166/1/5 157/1/5 165/1/5
f 167/2/5 161/2/5 152/2/5
f 168/2/5 161/2/5 167/2/5
f 169/2/6 170/2/6 171/2/6
f 171/2/6 170/2/6 172/2/6
f 172/2/6 170/2/6 173/2/6
f 171/2/6 172/2/6 174/2/6
f 174/2/6 172/2/6 175/2/6
f 174/1/6 175/1/6 176/1/6
f 176/1/6 175/1/6 177/1/6
f 178/2/6 179/2/6 183/2/6
f 179/1/6 180/1/6 183/1/6
f 183/1/6 180/1/6 184/1/6
f 181/1/6 182/1/6 185/1/6
f 185/1/6 182/1/6 186/1/6
f 186/1/6 182/1/6 187/1/6
f 187/1/6 182/1/6 188/1/6
f 188/1/6 182/1/6 189/1/6
f 178/2/6 183/2/6 190/2/6
f 190/2/6 183/2/6 191/2/6
f 192/1/6 193/1/6 195/1/6
f 193/2/6 194/2/6 196/2/6
f 195/1/6 193/1/6 196/1/6
f 192/1/6 195/1/6 197/1/6
f 195/2/6 196/2/6 198/2/6
f 197/1/6 195/1/6 198/1/6
f 196/2/6 194/2/6 199/2/6
f 198/2/6 196/2/6 199/2/6
