# MagicaVoxel @ Ephtracy

# group
o 

# material
mtllib stone003.mtl
usemtl palette

# normals
vn -1 0 0
vn 1 0 0
vn 0 0 1
vn 0 0 -1
vn 0 -1 0
vn 0 1 0

# texcoords
vt 0.970703 0.5
vt 0.974609 0.5

# verts
v -0.4 0.1 0.3
v -0.4 0.1 0.1
v -0.4 0.1 -0.1
v -0.4 0.2 0.4
v -0.4 0.2 0.3
v -0.4 0.2 0.1
v -0.4 0.2 -0.1
v -0.4 0.4 0.4
v -0.4 0.4 0.3
v -0.4 0.4 0
v -0.4 0.4 -0.1
v -0.4 0.5 0.3
v -0.4 0.5 0
v -0.3 0 0.3
v -0.3 0 -0.2
v -0.3 0.1 0.3
v -0.3 0.1 0.1
v -0.3 0.1 -0.1
v -0.3 0.1 -0.2
v -0.3 0.2 -0.1
v -0.3 0.3 -0.1
v -0.3 0.3 -0.2
v -0.3 0.4 0
v -0.3 0.4 -0.1
v -0.3 0.5 0
v -0.3 0.5 -0.1
v -0.2 0.3 -0.1
v -0.2 0.3 -0.2
v -0.2 0.4 -0.1
v -0.2 0.4 -0.2
v -0.2 0 0.3
v -0.2 0 -0.2
v -0.2 0.1 0.3
v -0.2 0.1 -0.2
v -0.1 0.1 0.3
v -0.1 0.1 0.2
v -0.1 0.2 0.3
v -0.1 0.2 0.2
v -0.1 0.3 0.1
v -0.1 0.3 0
v -0.1 0.4 0.3
v -0.1 0.4 0.1
v -0.1 0.4 0
v -0.1 0.4 -0.1
v -0.1 0.5 0.3
v -0.1 0.5 -0.1
v 0 0.1 0.2
v 0 0.1 -0.2
v 0 0.2 0.4
v 0 0.2 0.2
v 0 0.2 0.1
v 0 0.3 0.1
v 0 0.3 0
v 0 0.4 0.4
v 0 0.4 0.1
v 0 0.4 0
v 0 0.4 -0.2
v -0.4 0.2 0.4
v -0.4 0.4 0.4
v 0 0.2 0.4
v 0 0.4 0.4
v -0.4 0.1 0.3
v -0.4 0.2 0.3
v -0.4 0.4 0.3
v -0.4 0.5 0.3
v -0.3 0 0.3
v -0.3 0.1 0.3
v -0.2 0 0.3
v -0.2 0.1 0.3
v -0.2 0.2 0.3
v -0.1 0.1 0.3
v -0.1 0.2 0.3
v -0.1 0.4 0.3
v -0.1 0.5 0.3
v -0.1 0.1 0.2
v -0.1 0.2 0.2
v 0 0.1 0.2
v 0 0.2 0.2
v -0.1 0.3 0
v -0.1 0.4 0
v 0 0.3 0
v 0 0.4 0
v -0.1 0.3 0.1
v -0.1 0.4 0.1
v 0 0.3 0.1
v 0 0.4 0.1
v -0.4 0.4 0
v -0.4 0.5 0
v -0.3 0.4 0
v -0.3 0.5 0
v -0.4 0.1 -0.1
v -0.4 0.2 -0.1
v -0.4 0.4 -0.1
v -0.3 0.1 -0.1
v -0.3 0.2 -0.1
v -0.3 0.3 -0.1
v -0.3 0.4 -0.1
v -0.3 0.5 -0.1
v -0.2 0.3 -0.1
v -0.2 0.4 -0.1
v -0.1 0.4 -0.1
v -0.1 0.5 -0.1
v -0.3 0 -0.2
v -0.3 0.1 -0.2
v -0.3 0.3 -0.2
v -0.2 0 -0.2
v -0.2 0.1 -0.2
v -0.2 0.3 -0.2
v -0.2 0.4 -0.2
v 0 0.1 -0.2
v 0 0.4 -0.2
v -0.3 0 0.3
v -0.2 0 0.3
v -0.3 0 -0.2
v -0.2 0 -0.2
v -0.4 0.1 0.3
v -0.3 0.1 0.3
v -0.2 0.1 0.3
v -0.1 0.1 0.3
v -0.1 0.1 0.2
v 0 0.1 0.2
v -0.4 0.1 0.1
v -0.3 0.1 0.1
v -0.4 0.1 -0.1
v -0.3 0.1 -0.1
v -0.2 0.1 -0.2
v 0 0.1 -0.2
v -0.4 0.2 0.4
v 0 0.2 0.4
v -0.4 0.2 0.3
v -0.2 0.2 0.3
v -0.1 0.2 0.3
v -0.1 0.2 0.2
v 0 0.2 0.2
v -0.1 0.3 0.1
v 0 0.3 0.1
v -0.1 0.3 0
v 0 0.3 0
v -0.3 0.3 -0.1
v -0.2 0.3 -0.1
v -0.3 0.3 -0.2
v -0.2 0.3 -0.2
v -0.4 0.4 0.4
v 0 0.4 0.4
v -0.4 0.4 0.3
v -0.1 0.4 0.3
v -0.1 0.4 0.1
v 0 0.4 0.1
v -0.4 0.4 0
v -0.3 0.4 0
v -0.1 0.4 0
v 0 0.4 0
v -0.4 0.4 -0.1
v -0.3 0.4 -0.1
v -0.2 0.4 -0.1
v -0.1 0.4 -0.1
v -0.2 0.4 -0.2
v 0 0.4 -0.2
v -0.4 0.5 0.3
v -0.1 0.5 0.3
v -0.4 0.5 0
v -0.3 0.5 0
v -0.3 0.5 -0.1
v -0.1 0.5 -0.1

# faces
f 5/2/1 2/2/1 1/2/1
f 6/1/1 3/1/1 2/1/1
f 6/2/1 2/2/1 5/2/1
f 7/1/1 3/1/1 6/1/1
f 8/2/1 5/2/1 4/2/1
f 8/2/1 6/2/1 5/2/1
f 8/2/1 7/2/1 6/2/1
f 9/2/1 7/2/1 8/2/1
f 10/2/1 7/2/1 9/2/1
f 11/2/1 7/2/1 10/2/1
f 12/2/1 10/2/1 9/2/1
f 13/2/1 10/2/1 12/2/1
f 16/2/1 15/2/1 14/2/1
f 17/2/1 15/2/1 16/2/1
f 18/2/1 15/2/1 17/2/1
f 19/2/1 15/2/1 18/2/1
f 20/1/1 19/1/1 18/1/1
f 21/1/1 19/1/1 20/1/1
f 22/1/1 19/1/1 21/1/1
f 25/2/1 24/2/1 23/2/1
f 26/2/1 24/2/1 25/2/1
f 29/1/1 28/1/1 27/1/1
f 30/1/1 28/1/1 29/1/1
f 31/2/2 32/2/2 33/2/2
f 33/2/2 32/2/2 34/2/2
f 35/1/2 36/1/2 37/1/2
f 37/1/2 36/1/2 38/1/2
f 39/2/2 40/2/2 42/2/2
f 42/2/2 40/2/2 43/2/2
f 41/2/2 42/2/2 45/2/2
f 43/2/2 44/2/2 45/2/2
f 42/2/2 43/2/2 45/2/2
f 45/2/2 44/2/2 46/2/2
f 47/1/2 48/1/2 50/1/2
f 50/1/2 48/1/2 51/1/2
f 49/2/2 50/2/2 52/2/2
f 51/1/2 48/1/2 52/1/2
f 50/2/2 51/2/2 52/2/2
f 52/1/2 48/1/2 53/1/2
f 49/2/2 52/2/2 54/2/2
f 54/2/2 52/2/2 55/2/2
f 53/1/2 48/1/2 56/1/2
f 56/1/2 48/1/2 57/1/2
f 60/2/3 59/2/3 58/2/3
f 61/2/3 59/2/3 60/2/3
f 67/2/3 63/2/3 62/2/3
f 68/2/3 67/2/3 66/2/3
f 69/2/3 63/2/3 67/2/3
f 69/2/3 67/2/3 68/2/3
f 70/2/3 63/2/3 69/2/3
f 71/1/3 70/1/3 69/1/3
f 72/1/3 70/1/3 71/1/3
f 73/2/3 65/2/3 64/2/3
f 74/2/3 65/2/3 73/2/3
f 77/1/3 76/1/3 75/1/3
f 78/1/3 76/1/3 77/1/3
f 81/1/3 80/1/3 79/1/3
f 82/1/3 80/1/3 81/1/3
f 83/2/4 84/2/4 85/2/4
f 85/2/4 84/2/4 86/2/4
f 87/2/4 88/2/4 89/2/4
f 89/2/4 88/2/4 90/2/4
f 91/1/4 92/1/4 94/1/4
f 92/2/4 93/2/4 95/2/4
f 94/1/4 92/1/4 95/1/4
f 95/2/4 93/2/4 96/2/4
f 96/2/4 93/2/4 97/2/4
f 97/2/4 98/2/4 99/2/4
f 96/2/4 97/2/4 99/2/4
f 99/2/4 98/2/4 100/2/4
f 100/2/4 98/2/4 101/2/4
f 101/2/4 98/2/4 102/2/4
f 103/2/4 104/2/4 106/2/4
f 104/1/4 105/1/4 107/1/4
f 106/2/4 104/2/4 107/2/4
f 107/1/4 105/1/4 108/1/4
f 108/1/4 109/1/4 110/1/4
f 107/1/4 108/1/4 110/1/4
f 110/1/4 109/1/4 111/1/4
f 114/2/5 113/2/5 112/2/5
f 115/2/5 113/2/5 114/2/5
f 120/1/5 119/1/5 118/1/5
f 122/2/5 117/2/5 116/2/5
f 123/2/5 117/2/5 122/2/5
f 124/1/5 123/1/5 122/1/5
f 125/1/5 123/1/5 124/1/5
f 126/1/5 121/1/5 120/1/5
f 126/1/5 120/1/5 118/1/5
f 127/1/5 121/1/5 126/1/5
f 130/2/5 129/2/5 128/2/5
f 131/2/5 129/2/5 130/2/5
f 132/2/5 129/2/5 131/2/5
f 133/2/5 129/2/5 132/2/5
f 134/2/5 129/2/5 133/2/5
f 135/1/6 136/1/6 137/1/6
f 137/1/6 136/1/6 138/1/6
f 139/1/6 140/1/6 141/1/6
f 141/1/6 140/1/6 142/1/6
f 143/2/6 144/2/6 145/2/6
f 145/2/6 144/2/6 146/2/6
f 146/2/6 144/2/6 147/2/6
f 147/2/6 144/2/6 148/2/6
f 149/2/6 150/2/6 153/2/6
f 153/2/6 150/2/6 154/2/6
f 151/1/6 152/1/6 156/1/6
f 155/1/6 156/1/6 157/1/6
f 156/1/6 152/1/6 158/1/6
f 157/1/6 156/1/6 158/1/6
f 159/2/6 160/2/6 161/2/6
f 161/2/6 160/2/6 162/2/6
f 162/2/6 160/2/6 163/2/6
f 163/2/6 160/2/6 164/2/6
